<mxfile host="app.diagrams.net" modified="2024-04-12T10:10:58.009Z" agent="Mozilla/5.0 (Linux; Android 10; K) AppleWebKit/537.36 (KHTML, like Gecko) Chrome/123.0.0.0 Mobile Safari/537.36" etag="U0GVo2j0TVZuaGcgKHZf" version="24.2.3" type="google">
  <diagram name="Page-1" id="03018318-947c-dd8e-b7a3-06fadd420f32">
    <mxGraphModel grid="1" page="1" gridSize="10" guides="1" tooltips="1" connect="1" arrows="1" fold="1" pageScale="1" pageWidth="1100" pageHeight="850" background="none" math="0" shadow="0">
      <root>
        <mxCell id="0" />
        <mxCell id="1" parent="0" />
        <mxCell id="iwVdMdtX2RprNID0rX2L-23" value="" style="whiteSpace=wrap;html=1;rounded=0;shadow=0;labelBackgroundColor=none;strokeWidth=1;fillColor=none;fontFamily=Verdana;fontSize=12;align=center;comic=1;" vertex="1" parent="1">
          <mxGeometry x="20" y="1615" width="1060" height="65" as="geometry" />
        </mxCell>
        <mxCell id="677b7b8949515195-2" value="LOGO" style="whiteSpace=wrap;html=1;rounded=0;shadow=0;labelBackgroundColor=none;strokeWidth=1;fontFamily=Verdana;fontSize=28;align=center;comic=1;" vertex="1" parent="1">
          <mxGeometry x="915" y="40" width="145" height="105" as="geometry" />
        </mxCell>
        <mxCell id="677b7b8949515195-10" value="" style="whiteSpace=wrap;html=1;rounded=0;shadow=0;labelBackgroundColor=none;strokeWidth=1;fillColor=none;fontFamily=Verdana;fontSize=12;align=center;comic=1;" vertex="1" parent="1">
          <mxGeometry x="20" y="160" width="1060" height="50" as="geometry" />
        </mxCell>
        <mxCell id="677b7b8949515195-11" value="Nos Prodruits" style="text;html=1;points=[];align=left;verticalAlign=top;spacingTop=-4;fontSize=14;fontFamily=Verdana" vertex="1" parent="1">
          <mxGeometry x="490" y="175" width="60" height="20" as="geometry" />
        </mxCell>
        <mxCell id="677b7b8949515195-12" value="Commandes" style="text;html=1;points=[];align=left;verticalAlign=top;spacingTop=-4;fontSize=14;fontFamily=Verdana" vertex="1" parent="1">
          <mxGeometry x="720" y="175" width="60" height="20" as="geometry" />
        </mxCell>
        <mxCell id="677b7b8949515195-16" value="" style="verticalLabelPosition=bottom;shadow=0;dashed=0;align=center;html=1;verticalAlign=top;strokeWidth=1;shape=mxgraph.mockup.graphics.simpleIcon;strokeColor=#999999;rounded=0;labelBackgroundColor=none;fontFamily=Verdana;fontSize=14;fontColor=#000000;comic=1;" vertex="1" parent="1">
          <mxGeometry x="20" y="250" width="1060" height="520" as="geometry" />
        </mxCell>
        <mxCell id="iwVdMdtX2RprNID0rX2L-1" value="&lt;font style=&quot;font-size: 28px;&quot;&gt;Le fournil alsacien&lt;/font&gt;" style="text;html=1;align=center;verticalAlign=middle;whiteSpace=wrap;rounded=0;" vertex="1" parent="1">
          <mxGeometry x="370" y="80" width="360" height="30" as="geometry" />
        </mxCell>
        <mxCell id="iwVdMdtX2RprNID0rX2L-3" value="03.88.58.45.90&lt;br&gt;&lt;b&gt;&lt;u&gt;contact@lefournilalsacien.fr&lt;br&gt;&lt;/u&gt;&lt;/b&gt;&lt;span style=&quot;font-size: 12pt; line-height: 107%; font-family: Aptos, sans-serif;&quot;&gt;7 rue du sel à 67600 Sélestat&lt;/span&gt;&lt;b&gt;&lt;u&gt;&lt;span style=&quot;font-size:12.0pt;line-height:107%;font-family:&amp;quot;Aptos&amp;quot;,sans-serif;&lt;br/&gt;mso-ascii-theme-font:minor-latin;mso-fareast-font-family:&amp;quot;Times New Roman&amp;quot;;&lt;br/&gt;mso-hansi-theme-font:minor-latin;mso-bidi-font-family:&amp;quot;Times New Roman&amp;quot;;&lt;br/&gt;color:#0563C1;mso-ansi-language:FR;mso-fareast-language:FR;mso-bidi-language:&lt;br/&gt;AR-SA&quot;&gt;&lt;br&gt;&lt;/span&gt;&lt;/u&gt;&lt;/b&gt;&lt;span style=&quot;font-size: 12pt; line-height: 107%; font-family: Aptos, sans-serif;&quot;&gt;&lt;/span&gt;" style="text;html=1;points=[];align=left;verticalAlign=top;spacingTop=-4;fontSize=14;fontFamily=Verdana" vertex="1" parent="1">
          <mxGeometry x="30" y="1620" width="450" height="20" as="geometry" />
        </mxCell>
        <mxCell id="iwVdMdtX2RprNID0rX2L-4" value="Mentions Légales" style="text;html=1;points=[];align=left;verticalAlign=top;spacingTop=-4;fontSize=14;fontFamily=Verdana" vertex="1" parent="1">
          <mxGeometry x="933.5" y="1635" width="126.5" height="20" as="geometry" />
        </mxCell>
        <mxCell id="iwVdMdtX2RprNID0rX2L-10" value="Acceuil" style="text;html=1;points=[];align=left;verticalAlign=top;spacingTop=-4;fontSize=14;fontFamily=Verdana" vertex="1" parent="1">
          <mxGeometry x="290" y="175" width="60" height="20" as="geometry" />
        </mxCell>
        <mxCell id="iwVdMdtX2RprNID0rX2L-11" value="" style="whiteSpace=wrap;html=1;rounded=0;shadow=0;labelBackgroundColor=none;strokeWidth=1;fillColor=none;fontFamily=Verdana;fontSize=12;align=center;comic=1;" vertex="1" parent="1">
          <mxGeometry x="20" y="880" width="190" height="380" as="geometry" />
        </mxCell>
        <mxCell id="iwVdMdtX2RprNID0rX2L-12" value="Section 1" style="text;html=1;points=[];align=left;verticalAlign=top;spacingTop=-4;fontSize=14;fontFamily=Verdana" vertex="1" parent="1">
          <mxGeometry x="45" y="900" width="170" height="20" as="geometry" />
        </mxCell>
        <mxCell id="iwVdMdtX2RprNID0rX2L-13" value="Section 2" style="text;html=1;points=[];align=left;verticalAlign=top;spacingTop=-4;fontSize=14;fontFamily=Verdana" vertex="1" parent="1">
          <mxGeometry x="45" y="936" width="170" height="20" as="geometry" />
        </mxCell>
        <mxCell id="iwVdMdtX2RprNID0rX2L-14" value="Section 3" style="text;html=1;points=[];align=left;verticalAlign=top;spacingTop=-4;fontSize=14;fontFamily=Verdana" vertex="1" parent="1">
          <mxGeometry x="45" y="971" width="170" height="20" as="geometry" />
        </mxCell>
        <mxCell id="iwVdMdtX2RprNID0rX2L-15" value="Section 4" style="text;html=1;points=[];align=left;verticalAlign=top;spacingTop=-4;fontSize=14;fontFamily=Verdana" vertex="1" parent="1">
          <mxGeometry x="45" y="1007" width="170" height="20" as="geometry" />
        </mxCell>
        <mxCell id="iwVdMdtX2RprNID0rX2L-16" value="Section 7" style="text;html=1;points=[];align=left;verticalAlign=top;spacingTop=-4;fontSize=14;fontFamily=Verdana" vertex="1" parent="1">
          <mxGeometry x="45" y="1114" width="170" height="20" as="geometry" />
        </mxCell>
        <mxCell id="iwVdMdtX2RprNID0rX2L-17" value="Section 8" style="text;html=1;points=[];align=left;verticalAlign=top;spacingTop=-4;fontSize=14;fontFamily=Verdana" vertex="1" parent="1">
          <mxGeometry x="45" y="1150" width="170" height="20" as="geometry" />
        </mxCell>
        <mxCell id="iwVdMdtX2RprNID0rX2L-18" value="Section 9" style="text;html=1;points=[];align=left;verticalAlign=top;spacingTop=-4;fontSize=14;fontFamily=Verdana" vertex="1" parent="1">
          <mxGeometry x="45" y="1186" width="170" height="20" as="geometry" />
        </mxCell>
        <mxCell id="iwVdMdtX2RprNID0rX2L-19" value="Section 10" style="text;html=1;points=[];align=left;verticalAlign=top;spacingTop=-4;fontSize=14;fontFamily=Verdana" vertex="1" parent="1">
          <mxGeometry x="45" y="1221" width="170" height="20" as="geometry" />
        </mxCell>
        <mxCell id="iwVdMdtX2RprNID0rX2L-20" value="Section 5" style="text;html=1;points=[];align=left;verticalAlign=top;spacingTop=-4;fontSize=14;fontFamily=Verdana" vertex="1" parent="1">
          <mxGeometry x="45" y="1043" width="170" height="20" as="geometry" />
        </mxCell>
        <mxCell id="iwVdMdtX2RprNID0rX2L-21" value="Section 6" style="text;html=1;points=[];align=left;verticalAlign=top;spacingTop=-4;fontSize=14;fontFamily=Verdana" vertex="1" parent="1">
          <mxGeometry x="45" y="1079" width="170" height="20" as="geometry" />
        </mxCell>
        <mxCell id="iwVdMdtX2RprNID0rX2L-32" value="" style="verticalLabelPosition=bottom;shadow=0;dashed=0;align=center;html=1;verticalAlign=top;strokeWidth=1;shape=mxgraph.mockup.graphics.simpleIcon;strokeColor=#999999;rounded=0;labelBackgroundColor=none;fontFamily=Verdana;fontSize=14;fontColor=#000000;comic=1;" vertex="1" parent="1">
          <mxGeometry x="260" y="880" width="820" height="710" as="geometry" />
        </mxCell>
        <mxCell id="iwVdMdtX2RprNID0rX2L-30" value="&lt;p style=&quot;line-height: 120%;&quot;&gt;&lt;font style=&quot;font-size: 30px;&quot;&gt;Nos Prodruits&lt;/font&gt;&lt;/p&gt;" style="text;html=1;points=[];align=left;verticalAlign=top;spacingTop=-4;fontSize=14;fontFamily=Verdana" vertex="1" parent="1">
          <mxGeometry x="840" y="880" width="230" height="70" as="geometry" />
        </mxCell>
        <mxCell id="iwVdMdtX2RprNID0rX2L-33" value="" style="verticalLabelPosition=bottom;shadow=0;dashed=0;align=center;html=1;verticalAlign=top;strokeWidth=1;shape=mxgraph.mockup.graphics.simpleIcon;strokeColor=#999999;rounded=0;labelBackgroundColor=none;fontFamily=Verdana;fontSize=14;fontColor=#000000;comic=1;" vertex="1" parent="1">
          <mxGeometry x="20" y="1275" width="190" height="315" as="geometry" />
        </mxCell>
        <mxCell id="iwVdMdtX2RprNID0rX2L-34" value="LOGO" style="whiteSpace=wrap;html=1;rounded=0;shadow=0;labelBackgroundColor=none;strokeWidth=1;fontFamily=Verdana;fontSize=28;align=center;comic=1;" vertex="1" parent="1">
          <mxGeometry x="915" y="1718" width="145" height="105" as="geometry" />
        </mxCell>
        <mxCell id="iwVdMdtX2RprNID0rX2L-35" value="" style="whiteSpace=wrap;html=1;rounded=0;shadow=0;labelBackgroundColor=none;strokeWidth=1;fillColor=none;fontFamily=Verdana;fontSize=12;align=center;comic=1;" vertex="1" parent="1">
          <mxGeometry x="20" y="1838" width="1060" height="50" as="geometry" />
        </mxCell>
        <mxCell id="iwVdMdtX2RprNID0rX2L-36" value="Nos Prodruits" style="text;html=1;points=[];align=left;verticalAlign=top;spacingTop=-4;fontSize=14;fontFamily=Verdana" vertex="1" parent="1">
          <mxGeometry x="490" y="1853" width="60" height="20" as="geometry" />
        </mxCell>
        <mxCell id="iwVdMdtX2RprNID0rX2L-37" value="Commandes" style="text;html=1;points=[];align=left;verticalAlign=top;spacingTop=-4;fontSize=14;fontFamily=Verdana" vertex="1" parent="1">
          <mxGeometry x="720" y="1853" width="60" height="20" as="geometry" />
        </mxCell>
        <mxCell id="iwVdMdtX2RprNID0rX2L-38" value="" style="verticalLabelPosition=bottom;shadow=0;dashed=0;align=center;html=1;verticalAlign=top;strokeWidth=1;shape=mxgraph.mockup.graphics.simpleIcon;strokeColor=#999999;rounded=0;labelBackgroundColor=none;fontFamily=Verdana;fontSize=14;fontColor=#000000;comic=1;" vertex="1" parent="1">
          <mxGeometry x="20" y="1928" width="1060" height="520" as="geometry" />
        </mxCell>
        <mxCell id="iwVdMdtX2RprNID0rX2L-39" value="&lt;font style=&quot;font-size: 28px;&quot;&gt;Le fournil alsacien&lt;/font&gt;" style="text;html=1;align=center;verticalAlign=middle;whiteSpace=wrap;rounded=0;" vertex="1" parent="1">
          <mxGeometry x="370" y="1758" width="360" height="30" as="geometry" />
        </mxCell>
        <mxCell id="iwVdMdtX2RprNID0rX2L-40" value="Acceuil" style="text;html=1;points=[];align=left;verticalAlign=top;spacingTop=-4;fontSize=14;fontFamily=Verdana" vertex="1" parent="1">
          <mxGeometry x="290" y="1853" width="60" height="20" as="geometry" />
        </mxCell>
        <mxCell id="iwVdMdtX2RprNID0rX2L-41" value="&lt;font style=&quot;font-size: 30px;&quot;&gt;Commandes&lt;/font&gt;" style="text;html=1;points=[];align=left;verticalAlign=top;spacingTop=-4;fontSize=14;fontFamily=Verdana" vertex="1" parent="1">
          <mxGeometry x="870" y="1938" width="200" height="120" as="geometry" />
        </mxCell>
        <mxCell id="iwVdMdtX2RprNID0rX2L-42" value="" style="whiteSpace=wrap;html=1;rounded=0;shadow=0;labelBackgroundColor=none;strokeWidth=1;fillColor=none;fontFamily=Verdana;fontSize=12;align=center;comic=1;" vertex="1" parent="1">
          <mxGeometry x="20" y="2468" width="1060" height="65" as="geometry" />
        </mxCell>
        <mxCell id="iwVdMdtX2RprNID0rX2L-43" value="03.88.58.45.90&lt;br&gt;&lt;b&gt;&lt;u&gt;contact@lefournilalsacien.fr&lt;br&gt;&lt;/u&gt;&lt;/b&gt;&lt;span style=&quot;font-size: 12pt; line-height: 107%; font-family: Aptos, sans-serif;&quot;&gt;7 rue du sel à 67600 Sélestat&lt;/span&gt;&lt;b&gt;&lt;u&gt;&lt;span style=&quot;font-size:12.0pt;line-height:107%;font-family:&amp;quot;Aptos&amp;quot;,sans-serif;&lt;br/&gt;mso-ascii-theme-font:minor-latin;mso-fareast-font-family:&amp;quot;Times New Roman&amp;quot;;&lt;br/&gt;mso-hansi-theme-font:minor-latin;mso-bidi-font-family:&amp;quot;Times New Roman&amp;quot;;&lt;br/&gt;color:#0563C1;mso-ansi-language:FR;mso-fareast-language:FR;mso-bidi-language:&lt;br/&gt;AR-SA&quot;&gt;&lt;br&gt;&lt;/span&gt;&lt;/u&gt;&lt;/b&gt;&lt;span style=&quot;font-size: 12pt; line-height: 107%; font-family: Aptos, sans-serif;&quot;&gt;&lt;/span&gt;" style="text;html=1;points=[];align=left;verticalAlign=top;spacingTop=-4;fontSize=14;fontFamily=Verdana" vertex="1" parent="1">
          <mxGeometry x="30" y="2473" width="450" height="20" as="geometry" />
        </mxCell>
        <mxCell id="iwVdMdtX2RprNID0rX2L-44" value="Mentions Légales" style="text;html=1;points=[];align=left;verticalAlign=top;spacingTop=-4;fontSize=14;fontFamily=Verdana" vertex="1" parent="1">
          <mxGeometry x="933.5" y="2488" width="126.5" height="20" as="geometry" />
        </mxCell>
        <mxCell id="iwVdMdtX2RprNID0rX2L-45" value="LOGO" style="whiteSpace=wrap;html=1;rounded=0;shadow=0;labelBackgroundColor=none;strokeWidth=1;fontFamily=Verdana;fontSize=28;align=center;comic=1;" vertex="1" parent="1">
          <mxGeometry x="915" y="2590" width="145" height="105" as="geometry" />
        </mxCell>
        <mxCell id="iwVdMdtX2RprNID0rX2L-49" value="" style="verticalLabelPosition=bottom;shadow=0;dashed=0;align=center;html=1;verticalAlign=top;strokeWidth=1;shape=mxgraph.mockup.graphics.simpleIcon;strokeColor=#999999;rounded=0;labelBackgroundColor=none;fontFamily=Verdana;fontSize=14;fontColor=#000000;comic=1;" vertex="1" parent="1">
          <mxGeometry x="20" y="2778" width="1060" height="520" as="geometry" />
        </mxCell>
        <mxCell id="iwVdMdtX2RprNID0rX2L-50" value="&lt;font style=&quot;font-size: 28px;&quot;&gt;Le fournil alsacien&lt;/font&gt;" style="text;html=1;align=center;verticalAlign=middle;whiteSpace=wrap;rounded=0;" vertex="1" parent="1">
          <mxGeometry x="370" y="2608" width="360" height="30" as="geometry" />
        </mxCell>
        <mxCell id="iwVdMdtX2RprNID0rX2L-52" value="&lt;font style=&quot;font-size: 30px;&quot;&gt;LOGIN&lt;/font&gt;" style="text;html=1;points=[];align=center;verticalAlign=top;spacingTop=-4;fontSize=14;fontFamily=Verdana" vertex="1" parent="1">
          <mxGeometry x="450" y="2870" width="200" height="120" as="geometry" />
        </mxCell>
        <mxCell id="iwVdMdtX2RprNID0rX2L-53" value="" style="whiteSpace=wrap;html=1;rounded=0;shadow=0;labelBackgroundColor=none;strokeWidth=1;fillColor=none;fontFamily=Verdana;fontSize=12;align=center;comic=1;" vertex="1" parent="1">
          <mxGeometry x="20" y="3318" width="1060" height="65" as="geometry" />
        </mxCell>
        <mxCell id="iwVdMdtX2RprNID0rX2L-54" value="03.88.58.45.90&lt;br&gt;&lt;b&gt;&lt;u&gt;contact@lefournilalsacien.fr&lt;br&gt;&lt;/u&gt;&lt;/b&gt;&lt;span style=&quot;font-size: 12pt; line-height: 107%; font-family: Aptos, sans-serif;&quot;&gt;7 rue du sel à 67600 Sélestat&lt;/span&gt;&lt;b&gt;&lt;u&gt;&lt;span style=&quot;font-size:12.0pt;line-height:107%;font-family:&amp;quot;Aptos&amp;quot;,sans-serif;&lt;br/&gt;mso-ascii-theme-font:minor-latin;mso-fareast-font-family:&amp;quot;Times New Roman&amp;quot;;&lt;br/&gt;mso-hansi-theme-font:minor-latin;mso-bidi-font-family:&amp;quot;Times New Roman&amp;quot;;&lt;br/&gt;color:#0563C1;mso-ansi-language:FR;mso-fareast-language:FR;mso-bidi-language:&lt;br/&gt;AR-SA&quot;&gt;&lt;br&gt;&lt;/span&gt;&lt;/u&gt;&lt;/b&gt;&lt;span style=&quot;font-size: 12pt; line-height: 107%; font-family: Aptos, sans-serif;&quot;&gt;&lt;/span&gt;" style="text;html=1;points=[];align=left;verticalAlign=top;spacingTop=-4;fontSize=14;fontFamily=Verdana" vertex="1" parent="1">
          <mxGeometry x="30" y="3323" width="450" height="20" as="geometry" />
        </mxCell>
        <mxCell id="iwVdMdtX2RprNID0rX2L-55" value="Mentions Légales" style="text;html=1;points=[];align=left;verticalAlign=top;spacingTop=-4;fontSize=14;fontFamily=Verdana" vertex="1" parent="1">
          <mxGeometry x="933.5" y="3338" width="126.5" height="20" as="geometry" />
        </mxCell>
      </root>
    </mxGraphModel>
  </diagram>
</mxfile>
